    <svg xmlns="http://www.w3.org/2000/svg" width="256" viewBox="0 0 256 256" xml:space="preserve"><path d="M223.396 158.772c.139-9.267.128-16.947-.034-24.162-.113-5.223-3.737-9.683-7.488-11.666q.459-.41.91-.841c4.307-4.115 6.53-8.718 6.61-13.677.146-8.843.136-16.757-.03-24.194-.124-5.517-4.169-10.187-8.129-11.973a38 38 0 0 0 1.751-1.677c8.464-8.643 8.619-19.988.402-28.897a29 29 0 0 0-2.622-2.484c-6.114-5.163-13.017-7.971-18.346-9.84-11.479-4.027-24.063-6.498-39.611-7.777l-9.759-.805a10 10 0 0 0-.823-.034h-16.531q-.55 0-1.099.061-.649.073-1.298.156c-.682.085-1.325.167-1.821.192-15.268.812-28.434 2.895-40.248 6.365-7.744 2.274-16.636 5.253-24.159 11.853-3.38 2.961-6.017 6.648-7.423 10.374-3.057 8.085-.439 16.41 7.005 22.39q-.198.09-.395.185c-4.919 2.375-7.846 7.121-7.828 12.696.006 1.876.03 3.753.054 5.63.06 4.692.116 9.124-.102 13.516-.369 7.449 2.174 13.715 7.572 18.688l-.066.034c-4.673 2.415-7.458 7.066-7.448 12.44l.007 3.772c.013 5.896.025 11.994-.022 17.965-.046 5.667 1.98 10.679 5.858 14.489l.198.194c.471.465.973.958 1.511 1.462-2.699 1.373-7.621 4.993-7.57 13.114q.016 2.201.04 4.402c.054 5.267.105 10.242-.072 15.241-.184 5.206 1.213 12.701 8.917 18.838 5.673 4.517 11.975 7.052 16.222 8.566 11.689 4.169 24.329 6.647 40.983 8.037 2.365.196 4.731.38 7.098.563l3.305.257q.391.031.784.031h16.531c.631 0 1.261-.06 1.88-.179q.394-.076.788-.163l.196-.042c2.298-.213 4.599-.403 6.899-.594 5.134-.425 10.442-.863 15.747-1.561 12.961-1.698 23.206-4.463 32.241-8.697 4.487-2.103 8.284-4.84 12.093-7.69 4.619-3.45 7.305-8.756 7.367-14.563.066-6.402.055-12.882.043-19.147l-.007-4.205c-.02-5.279-2.923-9.914-7.635-12.251l.092-.067c4.657-3.43 7.377-8.652 7.462-14.325" style="fill:#d1d1d1"/><path d="M63.001 53.284c.903-2.392 2.711-4.682 4.66-6.39 5.842-5.124 13.07-7.63 20.387-9.779 12.387-3.639 25.102-5.29 37.961-5.974 1.233-.064 2.458-.259 3.687-.395h16.531q4.885.405 9.769.806c12.642 1.04 25.103 3.032 37.114 7.246 5.459 1.915 10.724 4.261 15.205 8.045.6.507 1.185 1.039 1.715 1.615 4.634 5.024 4.603 10.236-.188 15.128-4.425 4.521-10.069 7.035-15.872 9.159-10.96 4.007-22.361 6.013-33.929 7.191s-23.16 1.484-34.77.749c-16.149-1.023-32.118-3.104-47.138-9.543-3.863-1.656-7.542-3.981-10.888-6.543-3.585-2.747-6.03-6.591-4.244-11.315m148.228 128.761c-1.49-.656-2.865-.393-4.233.594-2.166 1.56-4.333 3.188-6.704 4.379-6.535 3.281-13.566 5.144-20.676 6.719-15.979 3.539-32.186 4.326-48.48 3.884-13.387-.364-26.703-1.449-39.739-4.718-7.911-1.984-15.639-4.486-22.019-9.903-1.434-1.218-2.956-1.729-4.701-.95-1.789.799-2.267 2.34-2.255 4.206.045 6.688.198 13.384-.038 20.063-.163 4.604 1.726 7.933 5.152 10.662 4.001 3.186 8.584 5.271 13.352 6.971 12.436 4.436 25.362 6.398 38.453 7.49 3.451.287 6.906.545 10.357.816h16.531c.571-.109 1.141-.267 1.719-.32 7.5-.701 15.031-1.152 22.492-2.133 10.088-1.322 20.035-3.496 29.299-7.838 3.686-1.727 7.07-4.191 10.351-6.646 2.076-1.551 3.323-3.961 3.353-6.654.08-7.737.045-15.475.035-23.213-.007-1.6-.818-2.776-2.249-3.409m-.096-50.293c-1.043-.461-2.996-.33-3.801.389-4.339 3.863-9.57 5.892-14.904 7.691-13.509 4.563-27.49 6.658-41.672 7.229-19.293.774-38.54.232-57.477-4.103-8.853-2.026-17.461-4.71-24.547-10.829-1.238-1.07-2.792-1.115-4.255-.359-1.404.726-2.041 1.947-2.038 3.539.012 7.277.043 14.557-.015 21.834-.023 2.854.876 5.319 2.87 7.279 1.531 1.506 3.127 3.119 5.009 4.057 4.611 2.297 9.263 4.664 14.147 6.228 17.398 5.565 35.412 6.912 58.838 7.237 5.72-.518 16.708-1.221 27.614-2.58 9.949-1.241 19.767-3.479 28.896-7.803 3.622-1.715 6.959-4.119 10.203-6.512 2.034-1.499 3.356-3.824 3.396-6.427.119-7.931.146-15.866-.033-23.796-.024-1.084-1.203-2.617-2.231-3.074m-141.59-14.084c6.285 4.116 13.287 6.457 20.471 8.312 15.716 4.055 31.762 5.313 51.589 5.523 4.074-.254 11.81-.552 19.508-1.263 11.9-1.102 23.625-3.202 34.877-7.408 5.055-1.889 9.918-4.163 13.887-7.959 1.896-1.812 3.477-3.935 3.52-6.611.131-7.933.148-15.873-.028-23.805-.024-1.085-1.2-2.616-2.229-3.075-1.043-.463-2.998-.343-3.804.369-4.401 3.892-9.677 5.972-15.095 7.762-15.512 5.125-31.529 7.12-47.791 7.378-17.275.274-34.49-.417-51.403-4.357-8.719-2.031-17.211-4.682-24.201-10.696-1.25-1.075-2.755-1.23-4.239-.511-1.491.72-2.18 1.976-2.175 3.658.021 6.558.264 13.13-.06 19.673-.298 5.999 2.469 9.929 7.173 13.01" style="fill:#454545"/><text x="138" y="128" font-size="100" fill="red" text-anchor="middle">!</text></svg>